<svg width="25" height="24" viewBox="0 0 25 24" fill="none" xmlns="http://www.w3.org/2000/svg">
<path d="M12.6 15C14.2569 15 15.6 13.6569 15.6 12C15.6 10.3431 14.2569 9 12.6 9C10.9432 9 9.60001 10.3431 9.60001 12C9.60001 13.6569 10.9432 15 12.6 15Z" fill="#999999"/>
<path fill-rule="evenodd" clip-rule="evenodd" d="M1.92342 11.4467C3.41067 6.97571 7.62792 3.75 12.6005 3.75C17.5708 3.75 21.7865 6.97271 23.2756 11.4405C23.3959 11.8015 23.396 12.1922 23.2759 12.5533C21.7886 17.0243 17.5714 20.25 12.5988 20.25C7.62848 20.25 3.41284 17.0273 1.92374 12.5595C1.8034 12.1985 1.80329 11.8078 1.92342 11.4467ZM17.85 12C17.85 14.8995 15.4995 17.25 12.6 17.25C9.70051 17.25 7.35001 14.8995 7.35001 12C7.35001 9.1005 9.70051 6.75 12.6 6.75C15.4995 6.75 17.85 9.1005 17.85 12Z" fill="#999999"/>
</svg>
