<svg width="29" height="28" viewBox="0 0 29 28" fill="none" xmlns="http://www.w3.org/2000/svg">
<path d="M22.7997 6.57529C26.9002 10.6758 26.9002 17.324 22.7997 21.4245M19.7064 9.66898C22.0984 12.0609 22.0984 15.9391 19.7064 18.331M8.375 9.62498L13.8813 4.11869C14.4325 3.56747 15.375 3.95787 15.375 4.73741V23.2625C15.375 24.0421 14.4325 24.4325 13.8813 23.8813L8.375 18.375H5.76056C4.73466 18.375 3.77356 17.7841 3.5011 16.795C3.25595 15.9051 3.125 14.9678 3.125 14C3.125 13.0321 3.25595 12.0949 3.5011 11.2049C3.77356 10.2159 4.73466 9.62498 5.76056 9.62498H8.375Z" stroke="white" stroke-width="2" stroke-linecap="round" stroke-linejoin="round"/>
</svg>
